<?xml version="1.0" encoding="utf-8"?>
<svg xmlns="http://www.w3.org/2000/svg" xmlns:xlink="http://www.w3.org/1999/xlink" xml:space="preserve" width="444" height="444" viewBox="0 0 444 444"><rect width="444" height="444" fill="#000000" x="0" y="0"/><g fill="#99dd00">
<g transform="translate(144,24) scale(2.06)"><rect width="6" height="6"/></g>
<g transform="translate(156,24) scale(2.06)"><rect width="6" height="6"/></g>
<g transform="translate(168,24) scale(2.06)"><rect width="6" height="6"/></g>
<g transform="translate(240,24) scale(2.06)"><rect width="6" height="6"/></g>
<g transform="translate(252,24) scale(2.06)"><rect width="6" height="6"/></g>
<g transform="translate(264,24) scale(2.06)"><rect width="6" height="6"/></g>
<g transform="translate(288,24) scale(2.06)"><rect width="6" height="6"/></g>
<g transform="translate(300,24) scale(2.06)"><rect width="6" height="6"/></g>
<g transform="translate(132,36) scale(2.06)"><rect width="6" height="6"/></g>
<g transform="translate(168,36) scale(2.06)"><rect width="6" height="6"/></g>
<g transform="translate(204,36) scale(2.06)"><rect width="6" height="6"/></g>
<g transform="translate(240,36) scale(2.06)"><rect width="6" height="6"/></g>
<g transform="translate(288,36) scale(2.06)"><rect width="6" height="6"/></g>
<g transform="translate(312,36) scale(2.06)"><rect width="6" height="6"/></g>
<g transform="translate(120,48) scale(2.06)"><rect width="6" height="6"/></g>
<g transform="translate(132,48) scale(2.06)"><rect width="6" height="6"/></g>
<g transform="translate(168,48) scale(2.06)"><rect width="6" height="6"/></g>
<g transform="translate(192,48) scale(2.06)"><rect width="6" height="6"/></g>
<g transform="translate(216,48) scale(2.06)"><rect width="6" height="6"/></g>
<g transform="translate(252,48) scale(2.06)"><rect width="6" height="6"/></g>
<g transform="translate(276,48) scale(2.06)"><rect width="6" height="6"/></g>
<g transform="translate(288,48) scale(2.06)"><rect width="6" height="6"/></g>
<g transform="translate(300,48) scale(2.06)"><rect width="6" height="6"/></g>
<g transform="translate(312,48) scale(2.06)"><rect width="6" height="6"/></g>
<g transform="translate(120,60) scale(2.06)"><rect width="6" height="6"/></g>
<g transform="translate(132,60) scale(2.06)"><rect width="6" height="6"/></g>
<g transform="translate(144,60) scale(2.06)"><rect width="6" height="6"/></g>
<g transform="translate(156,60) scale(2.06)"><rect width="6" height="6"/></g>
<g transform="translate(240,60) scale(2.06)"><rect width="6" height="6"/></g>
<g transform="translate(276,60) scale(2.06)"><rect width="6" height="6"/></g>
<g transform="translate(312,60) scale(2.06)"><rect width="6" height="6"/></g>
<g transform="translate(120,72) scale(2.06)"><rect width="6" height="6"/></g>
<g transform="translate(156,72) scale(2.06)"><rect width="6" height="6"/></g>
<g transform="translate(168,72) scale(2.06)"><rect width="6" height="6"/></g>
<g transform="translate(180,72) scale(2.06)"><rect width="6" height="6"/></g>
<g transform="translate(192,72) scale(2.06)"><rect width="6" height="6"/></g>
<g transform="translate(204,72) scale(2.06)"><rect width="6" height="6"/></g>
<g transform="translate(216,72) scale(2.06)"><rect width="6" height="6"/></g>
<g transform="translate(264,72) scale(2.06)"><rect width="6" height="6"/></g>
<g transform="translate(276,72) scale(2.06)"><rect width="6" height="6"/></g>
<g transform="translate(300,72) scale(2.06)"><rect width="6" height="6"/></g>
<g transform="translate(312,72) scale(2.06)"><rect width="6" height="6"/></g>
<g transform="translate(120,84) scale(2.06)"><rect width="6" height="6"/></g>
<g transform="translate(144,84) scale(2.06)"><rect width="6" height="6"/></g>
<g transform="translate(156,84) scale(2.06)"><rect width="6" height="6"/></g>
<g transform="translate(180,84) scale(2.06)"><rect width="6" height="6"/></g>
<g transform="translate(192,84) scale(2.06)"><rect width="6" height="6"/></g>
<g transform="translate(228,84) scale(2.06)"><rect width="6" height="6"/></g>
<g transform="translate(252,84) scale(2.06)"><rect width="6" height="6"/></g>
<g transform="translate(312,84) scale(2.06)"><rect width="6" height="6"/></g>
<g transform="translate(120,96) scale(2.06)"><rect width="6" height="6"/></g>
<g transform="translate(144,96) scale(2.06)"><rect width="6" height="6"/></g>
<g transform="translate(168,96) scale(2.06)"><rect width="6" height="6"/></g>
<g transform="translate(192,96) scale(2.06)"><rect width="6" height="6"/></g>
<g transform="translate(216,96) scale(2.06)"><rect width="6" height="6"/></g>
<g transform="translate(240,96) scale(2.06)"><rect width="6" height="6"/></g>
<g transform="translate(264,96) scale(2.06)"><rect width="6" height="6"/></g>
<g transform="translate(288,96) scale(2.06)"><rect width="6" height="6"/></g>
<g transform="translate(312,96) scale(2.06)"><rect width="6" height="6"/></g>
<g transform="translate(120,108) scale(2.06)"><rect width="6" height="6"/></g>
<g transform="translate(156,108) scale(2.06)"><rect width="6" height="6"/></g>
<g transform="translate(168,108) scale(2.06)"><rect width="6" height="6"/></g>
<g transform="translate(192,108) scale(2.06)"><rect width="6" height="6"/></g>
<g transform="translate(216,108) scale(2.06)"><rect width="6" height="6"/></g>
<g transform="translate(252,108) scale(2.06)"><rect width="6" height="6"/></g>
<g transform="translate(264,108) scale(2.06)"><rect width="6" height="6"/></g>
<g transform="translate(276,108) scale(2.06)"><rect width="6" height="6"/></g>
<g transform="translate(288,108) scale(2.06)"><rect width="6" height="6"/></g>
<g transform="translate(24,120) scale(2.06)"><rect width="6" height="6"/></g>
<g transform="translate(48,120) scale(2.06)"><rect width="6" height="6"/></g>
<g transform="translate(60,120) scale(2.06)"><rect width="6" height="6"/></g>
<g transform="translate(72,120) scale(2.06)"><rect width="6" height="6"/></g>
<g transform="translate(84,120) scale(2.06)"><rect width="6" height="6"/></g>
<g transform="translate(96,120) scale(2.06)"><rect width="6" height="6"/></g>
<g transform="translate(132,120) scale(2.06)"><rect width="6" height="6"/></g>
<g transform="translate(156,120) scale(2.06)"><rect width="6" height="6"/></g>
<g transform="translate(180,120) scale(2.06)"><rect width="6" height="6"/></g>
<g transform="translate(192,120) scale(2.06)"><rect width="6" height="6"/></g>
<g transform="translate(228,120) scale(2.06)"><rect width="6" height="6"/></g>
<g transform="translate(240,120) scale(2.06)"><rect width="6" height="6"/></g>
<g transform="translate(252,120) scale(2.06)"><rect width="6" height="6"/></g>
<g transform="translate(264,120) scale(2.06)"><rect width="6" height="6"/></g>
<g transform="translate(288,120) scale(2.06)"><rect width="6" height="6"/></g>
<g transform="translate(336,120) scale(2.06)"><rect width="6" height="6"/></g>
<g transform="translate(348,120) scale(2.06)"><rect width="6" height="6"/></g>
<g transform="translate(360,120) scale(2.06)"><rect width="6" height="6"/></g>
<g transform="translate(372,120) scale(2.06)"><rect width="6" height="6"/></g>
<g transform="translate(384,120) scale(2.06)"><rect width="6" height="6"/></g>
<g transform="translate(24,132) scale(2.06)"><rect width="6" height="6"/></g>
<g transform="translate(36,132) scale(2.06)"><rect width="6" height="6"/></g>
<g transform="translate(48,132) scale(2.06)"><rect width="6" height="6"/></g>
<g transform="translate(84,132) scale(2.06)"><rect width="6" height="6"/></g>
<g transform="translate(120,132) scale(2.06)"><rect width="6" height="6"/></g>
<g transform="translate(144,132) scale(2.06)"><rect width="6" height="6"/></g>
<g transform="translate(180,132) scale(2.06)"><rect width="6" height="6"/></g>
<g transform="translate(216,132) scale(2.06)"><rect width="6" height="6"/></g>
<g transform="translate(228,132) scale(2.06)"><rect width="6" height="6"/></g>
<g transform="translate(240,132) scale(2.06)"><rect width="6" height="6"/></g>
<g transform="translate(252,132) scale(2.06)"><rect width="6" height="6"/></g>
<g transform="translate(264,132) scale(2.06)"><rect width="6" height="6"/></g>
<g transform="translate(300,132) scale(2.06)"><rect width="6" height="6"/></g>
<g transform="translate(336,132) scale(2.06)"><rect width="6" height="6"/></g>
<g transform="translate(348,132) scale(2.06)"><rect width="6" height="6"/></g>
<g transform="translate(372,132) scale(2.06)"><rect width="6" height="6"/></g>
<g transform="translate(384,132) scale(2.06)"><rect width="6" height="6"/></g>
<g transform="translate(408,132) scale(2.06)"><rect width="6" height="6"/></g>
<g transform="translate(24,144) scale(2.06)"><rect width="6" height="6"/></g>
<g transform="translate(36,144) scale(2.06)"><rect width="6" height="6"/></g>
<g transform="translate(60,144) scale(2.06)"><rect width="6" height="6"/></g>
<g transform="translate(72,144) scale(2.06)"><rect width="6" height="6"/></g>
<g transform="translate(96,144) scale(2.06)"><rect width="6" height="6"/></g>
<g transform="translate(108,144) scale(2.06)"><rect width="6" height="6"/></g>
<g transform="translate(120,144) scale(2.06)"><rect width="6" height="6"/></g>
<g transform="translate(144,144) scale(2.06)"><rect width="6" height="6"/></g>
<g transform="translate(156,144) scale(2.06)"><rect width="6" height="6"/></g>
<g transform="translate(168,144) scale(2.06)"><rect width="6" height="6"/></g>
<g transform="translate(180,144) scale(2.06)"><rect width="6" height="6"/></g>
<g transform="translate(192,144) scale(2.06)"><rect width="6" height="6"/></g>
<g transform="translate(204,144) scale(2.06)"><rect width="6" height="6"/></g>
<g transform="translate(216,144) scale(2.06)"><rect width="6" height="6"/></g>
<g transform="translate(228,144) scale(2.06)"><rect width="6" height="6"/></g>
<g transform="translate(264,144) scale(2.06)"><rect width="6" height="6"/></g>
<g transform="translate(288,144) scale(2.06)"><rect width="6" height="6"/></g>
<g transform="translate(360,144) scale(2.06)"><rect width="6" height="6"/></g>
<g transform="translate(384,144) scale(2.06)"><rect width="6" height="6"/></g>
<g transform="translate(396,144) scale(2.06)"><rect width="6" height="6"/></g>
<g transform="translate(36,156) scale(2.06)"><rect width="6" height="6"/></g>
<g transform="translate(60,156) scale(2.06)"><rect width="6" height="6"/></g>
<g transform="translate(72,156) scale(2.06)"><rect width="6" height="6"/></g>
<g transform="translate(84,156) scale(2.06)"><rect width="6" height="6"/></g>
<g transform="translate(120,156) scale(2.06)"><rect width="6" height="6"/></g>
<g transform="translate(132,156) scale(2.06)"><rect width="6" height="6"/></g>
<g transform="translate(144,156) scale(2.06)"><rect width="6" height="6"/></g>
<g transform="translate(180,156) scale(2.06)"><rect width="6" height="6"/></g>
<g transform="translate(204,156) scale(2.06)"><rect width="6" height="6"/></g>
<g transform="translate(228,156) scale(2.06)"><rect width="6" height="6"/></g>
<g transform="translate(240,156) scale(2.06)"><rect width="6" height="6"/></g>
<g transform="translate(252,156) scale(2.06)"><rect width="6" height="6"/></g>
<g transform="translate(264,156) scale(2.06)"><rect width="6" height="6"/></g>
<g transform="translate(324,156) scale(2.06)"><rect width="6" height="6"/></g>
<g transform="translate(336,156) scale(2.06)"><rect width="6" height="6"/></g>
<g transform="translate(360,156) scale(2.06)"><rect width="6" height="6"/></g>
<g transform="translate(372,156) scale(2.06)"><rect width="6" height="6"/></g>
<g transform="translate(384,156) scale(2.06)"><rect width="6" height="6"/></g>
<g transform="translate(24,168) scale(2.06)"><rect width="6" height="6"/></g>
<g transform="translate(36,168) scale(2.06)"><rect width="6" height="6"/></g>
<g transform="translate(48,168) scale(2.06)"><rect width="6" height="6"/></g>
<g transform="translate(96,168) scale(2.06)"><rect width="6" height="6"/></g>
<g transform="translate(108,168) scale(2.06)"><rect width="6" height="6"/></g>
<g transform="translate(120,168) scale(2.06)"><rect width="6" height="6"/></g>
<g transform="translate(192,168) scale(2.06)"><rect width="6" height="6"/></g>
<g transform="translate(216,168) scale(2.06)"><rect width="6" height="6"/></g>
<g transform="translate(252,168) scale(2.06)"><rect width="6" height="6"/></g>
<g transform="translate(264,168) scale(2.06)"><rect width="6" height="6"/></g>
<g transform="translate(276,168) scale(2.06)"><rect width="6" height="6"/></g>
<g transform="translate(288,168) scale(2.06)"><rect width="6" height="6"/></g>
<g transform="translate(324,168) scale(2.06)"><rect width="6" height="6"/></g>
<g transform="translate(360,168) scale(2.06)"><rect width="6" height="6"/></g>
<g transform="translate(372,168) scale(2.06)"><rect width="6" height="6"/></g>
<g transform="translate(396,168) scale(2.06)"><rect width="6" height="6"/></g>
<g transform="translate(60,180) scale(2.06)"><rect width="6" height="6"/></g>
<g transform="translate(72,180) scale(2.06)"><rect width="6" height="6"/></g>
<g transform="translate(108,180) scale(2.06)"><rect width="6" height="6"/></g>
<g transform="translate(120,180) scale(2.06)"><rect width="6" height="6"/></g>
<g transform="translate(132,180) scale(2.06)"><rect width="6" height="6"/></g>
<g transform="translate(144,180) scale(2.06)"><rect width="6" height="6"/></g>
<g transform="translate(168,180) scale(2.06)"><rect width="6" height="6"/></g>
<g transform="translate(180,180) scale(2.06)"><rect width="6" height="6"/></g>
<g transform="translate(204,180) scale(2.06)"><rect width="6" height="6"/></g>
<g transform="translate(228,180) scale(2.06)"><rect width="6" height="6"/></g>
<g transform="translate(240,180) scale(2.06)"><rect width="6" height="6"/></g>
<g transform="translate(300,180) scale(2.06)"><rect width="6" height="6"/></g>
<g transform="translate(336,180) scale(2.06)"><rect width="6" height="6"/></g>
<g transform="translate(372,180) scale(2.06)"><rect width="6" height="6"/></g>
<g transform="translate(384,180) scale(2.06)"><rect width="6" height="6"/></g>
<g transform="translate(396,180) scale(2.06)"><rect width="6" height="6"/></g>
<g transform="translate(408,180) scale(2.06)"><rect width="6" height="6"/></g>
<g transform="translate(60,192) scale(2.06)"><rect width="6" height="6"/></g>
<g transform="translate(96,192) scale(2.06)"><rect width="6" height="6"/></g>
<g transform="translate(108,192) scale(2.06)"><rect width="6" height="6"/></g>
<g transform="translate(120,192) scale(2.06)"><rect width="6" height="6"/></g>
<g transform="translate(156,192) scale(2.06)"><rect width="6" height="6"/></g>
<g transform="translate(192,192) scale(2.06)"><rect width="6" height="6"/></g>
<g transform="translate(204,192) scale(2.06)"><rect width="6" height="6"/></g>
<g transform="translate(216,192) scale(2.06)"><rect width="6" height="6"/></g>
<g transform="translate(228,192) scale(2.06)"><rect width="6" height="6"/></g>
<g transform="translate(264,192) scale(2.06)"><rect width="6" height="6"/></g>
<g transform="translate(288,192) scale(2.06)"><rect width="6" height="6"/></g>
<g transform="translate(312,192) scale(2.06)"><rect width="6" height="6"/></g>
<g transform="translate(324,192) scale(2.06)"><rect width="6" height="6"/></g>
<g transform="translate(336,192) scale(2.06)"><rect width="6" height="6"/></g>
<g transform="translate(348,192) scale(2.06)"><rect width="6" height="6"/></g>
<g transform="translate(372,192) scale(2.06)"><rect width="6" height="6"/></g>
<g transform="translate(396,192) scale(2.06)"><rect width="6" height="6"/></g>
<g transform="translate(36,204) scale(2.06)"><rect width="6" height="6"/></g>
<g transform="translate(48,204) scale(2.06)"><rect width="6" height="6"/></g>
<g transform="translate(72,204) scale(2.06)"><rect width="6" height="6"/></g>
<g transform="translate(84,204) scale(2.06)"><rect width="6" height="6"/></g>
<g transform="translate(120,204) scale(2.06)"><rect width="6" height="6"/></g>
<g transform="translate(132,204) scale(2.06)"><rect width="6" height="6"/></g>
<g transform="translate(204,204) scale(2.06)"><rect width="6" height="6"/></g>
<g transform="translate(276,204) scale(2.06)"><rect width="6" height="6"/></g>
<g transform="translate(288,204) scale(2.06)"><rect width="6" height="6"/></g>
<g transform="translate(300,204) scale(2.06)"><rect width="6" height="6"/></g>
<g transform="translate(324,204) scale(2.06)"><rect width="6" height="6"/></g>
<g transform="translate(336,204) scale(2.06)"><rect width="6" height="6"/></g>
<g transform="translate(372,204) scale(2.06)"><rect width="6" height="6"/></g>
<g transform="translate(384,204) scale(2.06)"><rect width="6" height="6"/></g>
<g transform="translate(24,216) scale(2.06)"><rect width="6" height="6"/></g>
<g transform="translate(36,216) scale(2.06)"><rect width="6" height="6"/></g>
<g transform="translate(48,216) scale(2.06)"><rect width="6" height="6"/></g>
<g transform="translate(72,216) scale(2.06)"><rect width="6" height="6"/></g>
<g transform="translate(96,216) scale(2.06)"><rect width="6" height="6"/></g>
<g transform="translate(108,216) scale(2.06)"><rect width="6" height="6"/></g>
<g transform="translate(120,216) scale(2.06)"><rect width="6" height="6"/></g>
<g transform="translate(180,216) scale(2.06)"><rect width="6" height="6"/></g>
<g transform="translate(204,216) scale(2.06)"><rect width="6" height="6"/></g>
<g transform="translate(228,216) scale(2.06)"><rect width="6" height="6"/></g>
<g transform="translate(288,216) scale(2.06)"><rect width="6" height="6"/></g>
<g transform="translate(312,216) scale(2.06)"><rect width="6" height="6"/></g>
<g transform="translate(324,216) scale(2.06)"><rect width="6" height="6"/></g>
<g transform="translate(348,216) scale(2.06)"><rect width="6" height="6"/></g>
<g transform="translate(360,216) scale(2.06)"><rect width="6" height="6"/></g>
<g transform="translate(408,216) scale(2.06)"><rect width="6" height="6"/></g>
<g transform="translate(24,228) scale(2.06)"><rect width="6" height="6"/></g>
<g transform="translate(36,228) scale(2.06)"><rect width="6" height="6"/></g>
<g transform="translate(48,228) scale(2.06)"><rect width="6" height="6"/></g>
<g transform="translate(60,228) scale(2.06)"><rect width="6" height="6"/></g>
<g transform="translate(72,228) scale(2.06)"><rect width="6" height="6"/></g>
<g transform="translate(84,228) scale(2.06)"><rect width="6" height="6"/></g>
<g transform="translate(120,228) scale(2.06)"><rect width="6" height="6"/></g>
<g transform="translate(156,228) scale(2.06)"><rect width="6" height="6"/></g>
<g transform="translate(180,228) scale(2.06)"><rect width="6" height="6"/></g>
<g transform="translate(216,228) scale(2.06)"><rect width="6" height="6"/></g>
<g transform="translate(252,228) scale(2.06)"><rect width="6" height="6"/></g>
<g transform="translate(264,228) scale(2.06)"><rect width="6" height="6"/></g>
<g transform="translate(276,228) scale(2.06)"><rect width="6" height="6"/></g>
<g transform="translate(300,228) scale(2.06)"><rect width="6" height="6"/></g>
<g transform="translate(336,228) scale(2.06)"><rect width="6" height="6"/></g>
<g transform="translate(348,228) scale(2.06)"><rect width="6" height="6"/></g>
<g transform="translate(372,228) scale(2.06)"><rect width="6" height="6"/></g>
<g transform="translate(384,228) scale(2.06)"><rect width="6" height="6"/></g>
<g transform="translate(396,228) scale(2.06)"><rect width="6" height="6"/></g>
<g transform="translate(408,228) scale(2.06)"><rect width="6" height="6"/></g>
<g transform="translate(24,240) scale(2.06)"><rect width="6" height="6"/></g>
<g transform="translate(48,240) scale(2.06)"><rect width="6" height="6"/></g>
<g transform="translate(60,240) scale(2.06)"><rect width="6" height="6"/></g>
<g transform="translate(72,240) scale(2.06)"><rect width="6" height="6"/></g>
<g transform="translate(96,240) scale(2.06)"><rect width="6" height="6"/></g>
<g transform="translate(120,240) scale(2.06)"><rect width="6" height="6"/></g>
<g transform="translate(144,240) scale(2.06)"><rect width="6" height="6"/></g>
<g transform="translate(168,240) scale(2.06)"><rect width="6" height="6"/></g>
<g transform="translate(180,240) scale(2.06)"><rect width="6" height="6"/></g>
<g transform="translate(192,240) scale(2.06)"><rect width="6" height="6"/></g>
<g transform="translate(204,240) scale(2.06)"><rect width="6" height="6"/></g>
<g transform="translate(216,240) scale(2.06)"><rect width="6" height="6"/></g>
<g transform="translate(240,240) scale(2.06)"><rect width="6" height="6"/></g>
<g transform="translate(276,240) scale(2.06)"><rect width="6" height="6"/></g>
<g transform="translate(312,240) scale(2.06)"><rect width="6" height="6"/></g>
<g transform="translate(348,240) scale(2.06)"><rect width="6" height="6"/></g>
<g transform="translate(360,240) scale(2.06)"><rect width="6" height="6"/></g>
<g transform="translate(384,240) scale(2.06)"><rect width="6" height="6"/></g>
<g transform="translate(396,240) scale(2.06)"><rect width="6" height="6"/></g>
<g transform="translate(24,252) scale(2.06)"><rect width="6" height="6"/></g>
<g transform="translate(36,252) scale(2.06)"><rect width="6" height="6"/></g>
<g transform="translate(48,252) scale(2.06)"><rect width="6" height="6"/></g>
<g transform="translate(72,252) scale(2.06)"><rect width="6" height="6"/></g>
<g transform="translate(84,252) scale(2.06)"><rect width="6" height="6"/></g>
<g transform="translate(108,252) scale(2.06)"><rect width="6" height="6"/></g>
<g transform="translate(120,252) scale(2.06)"><rect width="6" height="6"/></g>
<g transform="translate(132,252) scale(2.06)"><rect width="6" height="6"/></g>
<g transform="translate(144,252) scale(2.06)"><rect width="6" height="6"/></g>
<g transform="translate(168,252) scale(2.06)"><rect width="6" height="6"/></g>
<g transform="translate(204,252) scale(2.06)"><rect width="6" height="6"/></g>
<g transform="translate(216,252) scale(2.06)"><rect width="6" height="6"/></g>
<g transform="translate(252,252) scale(2.06)"><rect width="6" height="6"/></g>
<g transform="translate(264,252) scale(2.06)"><rect width="6" height="6"/></g>
<g transform="translate(276,252) scale(2.06)"><rect width="6" height="6"/></g>
<g transform="translate(288,252) scale(2.06)"><rect width="6" height="6"/></g>
<g transform="translate(324,252) scale(2.06)"><rect width="6" height="6"/></g>
<g transform="translate(336,252) scale(2.06)"><rect width="6" height="6"/></g>
<g transform="translate(348,252) scale(2.06)"><rect width="6" height="6"/></g>
<g transform="translate(360,252) scale(2.06)"><rect width="6" height="6"/></g>
<g transform="translate(372,252) scale(2.06)"><rect width="6" height="6"/></g>
<g transform="translate(384,252) scale(2.06)"><rect width="6" height="6"/></g>
<g transform="translate(396,252) scale(2.06)"><rect width="6" height="6"/></g>
<g transform="translate(36,264) scale(2.06)"><rect width="6" height="6"/></g>
<g transform="translate(72,264) scale(2.06)"><rect width="6" height="6"/></g>
<g transform="translate(96,264) scale(2.06)"><rect width="6" height="6"/></g>
<g transform="translate(120,264) scale(2.06)"><rect width="6" height="6"/></g>
<g transform="translate(144,264) scale(2.06)"><rect width="6" height="6"/></g>
<g transform="translate(180,264) scale(2.06)"><rect width="6" height="6"/></g>
<g transform="translate(204,264) scale(2.06)"><rect width="6" height="6"/></g>
<g transform="translate(240,264) scale(2.06)"><rect width="6" height="6"/></g>
<g transform="translate(252,264) scale(2.06)"><rect width="6" height="6"/></g>
<g transform="translate(276,264) scale(2.06)"><rect width="6" height="6"/></g>
<g transform="translate(312,264) scale(2.06)"><rect width="6" height="6"/></g>
<g transform="translate(324,264) scale(2.06)"><rect width="6" height="6"/></g>
<g transform="translate(348,264) scale(2.06)"><rect width="6" height="6"/></g>
<g transform="translate(360,264) scale(2.06)"><rect width="6" height="6"/></g>
<g transform="translate(372,264) scale(2.06)"><rect width="6" height="6"/></g>
<g transform="translate(408,264) scale(2.06)"><rect width="6" height="6"/></g>
<g transform="translate(24,276) scale(2.06)"><rect width="6" height="6"/></g>
<g transform="translate(36,276) scale(2.06)"><rect width="6" height="6"/></g>
<g transform="translate(60,276) scale(2.06)"><rect width="6" height="6"/></g>
<g transform="translate(120,276) scale(2.06)"><rect width="6" height="6"/></g>
<g transform="translate(144,276) scale(2.06)"><rect width="6" height="6"/></g>
<g transform="translate(180,276) scale(2.06)"><rect width="6" height="6"/></g>
<g transform="translate(192,276) scale(2.06)"><rect width="6" height="6"/></g>
<g transform="translate(204,276) scale(2.06)"><rect width="6" height="6"/></g>
<g transform="translate(216,276) scale(2.06)"><rect width="6" height="6"/></g>
<g transform="translate(264,276) scale(2.06)"><rect width="6" height="6"/></g>
<g transform="translate(288,276) scale(2.06)"><rect width="6" height="6"/></g>
<g transform="translate(300,276) scale(2.06)"><rect width="6" height="6"/></g>
<g transform="translate(336,276) scale(2.06)"><rect width="6" height="6"/></g>
<g transform="translate(372,276) scale(2.06)"><rect width="6" height="6"/></g>
<g transform="translate(408,276) scale(2.06)"><rect width="6" height="6"/></g>
<g transform="translate(24,288) scale(2.06)"><rect width="6" height="6"/></g>
<g transform="translate(72,288) scale(2.06)"><rect width="6" height="6"/></g>
<g transform="translate(84,288) scale(2.06)"><rect width="6" height="6"/></g>
<g transform="translate(96,288) scale(2.06)"><rect width="6" height="6"/></g>
<g transform="translate(120,288) scale(2.06)"><rect width="6" height="6"/></g>
<g transform="translate(144,288) scale(2.06)"><rect width="6" height="6"/></g>
<g transform="translate(156,288) scale(2.06)"><rect width="6" height="6"/></g>
<g transform="translate(168,288) scale(2.06)"><rect width="6" height="6"/></g>
<g transform="translate(180,288) scale(2.06)"><rect width="6" height="6"/></g>
<g transform="translate(192,288) scale(2.06)"><rect width="6" height="6"/></g>
<g transform="translate(228,288) scale(2.06)"><rect width="6" height="6"/></g>
<g transform="translate(252,288) scale(2.06)"><rect width="6" height="6"/></g>
<g transform="translate(288,288) scale(2.06)"><rect width="6" height="6"/></g>
<g transform="translate(384,288) scale(2.06)"><rect width="6" height="6"/></g>
<g transform="translate(396,288) scale(2.06)"><rect width="6" height="6"/></g>
<g transform="translate(24,300) scale(2.06)"><rect width="6" height="6"/></g>
<g transform="translate(84,300) scale(2.06)"><rect width="6" height="6"/></g>
<g transform="translate(120,300) scale(2.06)"><rect width="6" height="6"/></g>
<g transform="translate(156,300) scale(2.06)"><rect width="6" height="6"/></g>
<g transform="translate(168,300) scale(2.06)"><rect width="6" height="6"/></g>
<g transform="translate(216,300) scale(2.06)"><rect width="6" height="6"/></g>
<g transform="translate(240,300) scale(2.06)"><rect width="6" height="6"/></g>
<g transform="translate(252,300) scale(2.06)"><rect width="6" height="6"/></g>
<g transform="translate(264,300) scale(2.06)"><rect width="6" height="6"/></g>
<g transform="translate(276,300) scale(2.06)"><rect width="6" height="6"/></g>
<g transform="translate(312,300) scale(2.06)"><rect width="6" height="6"/></g>
<g transform="translate(324,300) scale(2.06)"><rect width="6" height="6"/></g>
<g transform="translate(336,300) scale(2.06)"><rect width="6" height="6"/></g>
<g transform="translate(372,300) scale(2.06)"><rect width="6" height="6"/></g>
<g transform="translate(384,300) scale(2.06)"><rect width="6" height="6"/></g>
<g transform="translate(396,300) scale(2.06)"><rect width="6" height="6"/></g>
<g transform="translate(24,312) scale(2.06)"><rect width="6" height="6"/></g>
<g transform="translate(48,312) scale(2.06)"><rect width="6" height="6"/></g>
<g transform="translate(60,312) scale(2.06)"><rect width="6" height="6"/></g>
<g transform="translate(84,312) scale(2.06)"><rect width="6" height="6"/></g>
<g transform="translate(96,312) scale(2.06)"><rect width="6" height="6"/></g>
<g transform="translate(108,312) scale(2.06)"><rect width="6" height="6"/></g>
<g transform="translate(156,312) scale(2.06)"><rect width="6" height="6"/></g>
<g transform="translate(168,312) scale(2.06)"><rect width="6" height="6"/></g>
<g transform="translate(228,312) scale(2.06)"><rect width="6" height="6"/></g>
<g transform="translate(252,312) scale(2.06)"><rect width="6" height="6"/></g>
<g transform="translate(288,312) scale(2.06)"><rect width="6" height="6"/></g>
<g transform="translate(312,312) scale(2.06)"><rect width="6" height="6"/></g>
<g transform="translate(324,312) scale(2.06)"><rect width="6" height="6"/></g>
<g transform="translate(336,312) scale(2.06)"><rect width="6" height="6"/></g>
<g transform="translate(348,312) scale(2.06)"><rect width="6" height="6"/></g>
<g transform="translate(360,312) scale(2.06)"><rect width="6" height="6"/></g>
<g transform="translate(396,312) scale(2.06)"><rect width="6" height="6"/></g>
<g transform="translate(408,312) scale(2.06)"><rect width="6" height="6"/></g>
<g transform="translate(120,324) scale(2.06)"><rect width="6" height="6"/></g>
<g transform="translate(132,324) scale(2.06)"><rect width="6" height="6"/></g>
<g transform="translate(144,324) scale(2.06)"><rect width="6" height="6"/></g>
<g transform="translate(168,324) scale(2.06)"><rect width="6" height="6"/></g>
<g transform="translate(180,324) scale(2.06)"><rect width="6" height="6"/></g>
<g transform="translate(216,324) scale(2.06)"><rect width="6" height="6"/></g>
<g transform="translate(228,324) scale(2.06)"><rect width="6" height="6"/></g>
<g transform="translate(240,324) scale(2.06)"><rect width="6" height="6"/></g>
<g transform="translate(252,324) scale(2.06)"><rect width="6" height="6"/></g>
<g transform="translate(312,324) scale(2.06)"><rect width="6" height="6"/></g>
<g transform="translate(360,324) scale(2.06)"><rect width="6" height="6"/></g>
<g transform="translate(384,324) scale(2.06)"><rect width="6" height="6"/></g>
<g transform="translate(408,324) scale(2.06)"><rect width="6" height="6"/></g>
<g transform="translate(132,336) scale(2.06)"><rect width="6" height="6"/></g>
<g transform="translate(156,336) scale(2.06)"><rect width="6" height="6"/></g>
<g transform="translate(204,336) scale(2.06)"><rect width="6" height="6"/></g>
<g transform="translate(228,336) scale(2.06)"><rect width="6" height="6"/></g>
<g transform="translate(264,336) scale(2.06)"><rect width="6" height="6"/></g>
<g transform="translate(288,336) scale(2.06)"><rect width="6" height="6"/></g>
<g transform="translate(300,336) scale(2.06)"><rect width="6" height="6"/></g>
<g transform="translate(312,336) scale(2.06)"><rect width="6" height="6"/></g>
<g transform="translate(336,336) scale(2.06)"><rect width="6" height="6"/></g>
<g transform="translate(360,336) scale(2.06)"><rect width="6" height="6"/></g>
<g transform="translate(384,336) scale(2.06)"><rect width="6" height="6"/></g>
<g transform="translate(396,336) scale(2.06)"><rect width="6" height="6"/></g>
<g transform="translate(120,348) scale(2.06)"><rect width="6" height="6"/></g>
<g transform="translate(132,348) scale(2.06)"><rect width="6" height="6"/></g>
<g transform="translate(144,348) scale(2.06)"><rect width="6" height="6"/></g>
<g transform="translate(192,348) scale(2.06)"><rect width="6" height="6"/></g>
<g transform="translate(228,348) scale(2.06)"><rect width="6" height="6"/></g>
<g transform="translate(240,348) scale(2.06)"><rect width="6" height="6"/></g>
<g transform="translate(300,348) scale(2.06)"><rect width="6" height="6"/></g>
<g transform="translate(312,348) scale(2.06)"><rect width="6" height="6"/></g>
<g transform="translate(360,348) scale(2.06)"><rect width="6" height="6"/></g>
<g transform="translate(372,348) scale(2.06)"><rect width="6" height="6"/></g>
<g transform="translate(384,348) scale(2.06)"><rect width="6" height="6"/></g>
<g transform="translate(396,348) scale(2.06)"><rect width="6" height="6"/></g>
<g transform="translate(120,360) scale(2.06)"><rect width="6" height="6"/></g>
<g transform="translate(132,360) scale(2.06)"><rect width="6" height="6"/></g>
<g transform="translate(144,360) scale(2.06)"><rect width="6" height="6"/></g>
<g transform="translate(180,360) scale(2.06)"><rect width="6" height="6"/></g>
<g transform="translate(192,360) scale(2.06)"><rect width="6" height="6"/></g>
<g transform="translate(204,360) scale(2.06)"><rect width="6" height="6"/></g>
<g transform="translate(216,360) scale(2.06)"><rect width="6" height="6"/></g>
<g transform="translate(252,360) scale(2.06)"><rect width="6" height="6"/></g>
<g transform="translate(264,360) scale(2.06)"><rect width="6" height="6"/></g>
<g transform="translate(276,360) scale(2.06)"><rect width="6" height="6"/></g>
<g transform="translate(288,360) scale(2.06)"><rect width="6" height="6"/></g>
<g transform="translate(312,360) scale(2.06)"><rect width="6" height="6"/></g>
<g transform="translate(324,360) scale(2.06)"><rect width="6" height="6"/></g>
<g transform="translate(336,360) scale(2.06)"><rect width="6" height="6"/></g>
<g transform="translate(348,360) scale(2.06)"><rect width="6" height="6"/></g>
<g transform="translate(360,360) scale(2.06)"><rect width="6" height="6"/></g>
<g transform="translate(372,360) scale(2.06)"><rect width="6" height="6"/></g>
<g transform="translate(396,360) scale(2.06)"><rect width="6" height="6"/></g>
<g transform="translate(408,360) scale(2.06)"><rect width="6" height="6"/></g>
<g transform="translate(120,372) scale(2.06)"><rect width="6" height="6"/></g>
<g transform="translate(132,372) scale(2.06)"><rect width="6" height="6"/></g>
<g transform="translate(180,372) scale(2.06)"><rect width="6" height="6"/></g>
<g transform="translate(192,372) scale(2.06)"><rect width="6" height="6"/></g>
<g transform="translate(204,372) scale(2.06)"><rect width="6" height="6"/></g>
<g transform="translate(240,372) scale(2.06)"><rect width="6" height="6"/></g>
<g transform="translate(300,372) scale(2.06)"><rect width="6" height="6"/></g>
<g transform="translate(324,372) scale(2.06)"><rect width="6" height="6"/></g>
<g transform="translate(360,372) scale(2.06)"><rect width="6" height="6"/></g>
<g transform="translate(408,372) scale(2.06)"><rect width="6" height="6"/></g>
<g transform="translate(120,384) scale(2.06)"><rect width="6" height="6"/></g>
<g transform="translate(168,384) scale(2.06)"><rect width="6" height="6"/></g>
<g transform="translate(192,384) scale(2.06)"><rect width="6" height="6"/></g>
<g transform="translate(204,384) scale(2.06)"><rect width="6" height="6"/></g>
<g transform="translate(216,384) scale(2.06)"><rect width="6" height="6"/></g>
<g transform="translate(264,384) scale(2.06)"><rect width="6" height="6"/></g>
<g transform="translate(276,384) scale(2.06)"><rect width="6" height="6"/></g>
<g transform="translate(288,384) scale(2.06)"><rect width="6" height="6"/></g>
<g transform="translate(300,384) scale(2.06)"><rect width="6" height="6"/></g>
<g transform="translate(336,384) scale(2.06)"><rect width="6" height="6"/></g>
<g transform="translate(348,384) scale(2.06)"><rect width="6" height="6"/></g>
<g transform="translate(372,384) scale(2.06)"><rect width="6" height="6"/></g>
<g transform="translate(384,384) scale(2.06)"><rect width="6" height="6"/></g>
<g transform="translate(144,396) scale(2.06)"><rect width="6" height="6"/></g>
<g transform="translate(180,396) scale(2.06)"><rect width="6" height="6"/></g>
<g transform="translate(204,396) scale(2.06)"><rect width="6" height="6"/></g>
<g transform="translate(276,396) scale(2.06)"><rect width="6" height="6"/></g>
<g transform="translate(336,396) scale(2.06)"><rect width="6" height="6"/></g>
<g transform="translate(360,396) scale(2.06)"><rect width="6" height="6"/></g>
<g transform="translate(372,396) scale(2.06)"><rect width="6" height="6"/></g>
<g transform="translate(384,396) scale(2.06)"><rect width="6" height="6"/></g>
<g transform="translate(120,408) scale(2.06)"><rect width="6" height="6"/></g>
<g transform="translate(156,408) scale(2.06)"><rect width="6" height="6"/></g>
<g transform="translate(168,408) scale(2.06)"><rect width="6" height="6"/></g>
<g transform="translate(180,408) scale(2.06)"><rect width="6" height="6"/></g>
<g transform="translate(204,408) scale(2.06)"><rect width="6" height="6"/></g>
<g transform="translate(216,408) scale(2.06)"><rect width="6" height="6"/></g>
<g transform="translate(228,408) scale(2.06)"><rect width="6" height="6"/></g>
<g transform="translate(264,408) scale(2.06)"><rect width="6" height="6"/></g>
<g transform="translate(288,408) scale(2.06)"><rect width="6" height="6"/></g>
<g transform="translate(300,408) scale(2.06)"><rect width="6" height="6"/></g>
<g transform="translate(312,408) scale(2.06)"><rect width="6" height="6"/></g>
<g transform="translate(348,408) scale(2.06)"><rect width="6" height="6"/></g>
<g transform="translate(396,408) scale(2.06)"><rect width="6" height="6"/></g>
<g transform="translate(24,24)"><g transform="scale(6)"><path d="M0,0v14h14V0H0z M12,12H2V2h10V12z"/></g></g>
<g transform="translate(336,24)"><g transform="scale(6)"><path d="M0,0v14h14V0H0z M12,12H2V2h10V12z"/></g></g>
<g transform="translate(24,336)"><g transform="scale(6)"><path d="M0,0v14h14V0H0z M12,12H2V2h10V12z"/></g></g>
<g transform="translate(48,48)"><g transform="scale(6)"><rect width="6" height="6"/></g></g>
<g transform="translate(360,48)"><g transform="scale(6)"><rect width="6" height="6"/></g></g>
<g transform="translate(48,360)"><g transform="scale(6)"><rect width="6" height="6"/></g></g>
</g></svg>
