<?xml version="1.0" encoding="utf-8"?>
<svg xmlns="http://www.w3.org/2000/svg" xmlns:xlink="http://www.w3.org/1999/xlink" xml:space="preserve" width="444" height="444" viewBox="0 0 444 444"><rect width="444" height="444" fill="#ffffff" x="0" y="0"/><g fill="#000000">
<g transform="translate(156,24) scale(2.06)"><rect width="6" height="6"/></g>
<g transform="translate(168,24) scale(2.06)"><rect width="6" height="6"/></g>
<g transform="translate(180,24) scale(2.06)"><rect width="6" height="6"/></g>
<g transform="translate(192,24) scale(2.06)"><rect width="6" height="6"/></g>
<g transform="translate(228,24) scale(2.06)"><rect width="6" height="6"/></g>
<g transform="translate(288,24) scale(2.06)"><rect width="6" height="6"/></g>
<g transform="translate(300,24) scale(2.06)"><rect width="6" height="6"/></g>
<g transform="translate(312,24) scale(2.06)"><rect width="6" height="6"/></g>
<g transform="translate(132,36) scale(2.06)"><rect width="6" height="6"/></g>
<g transform="translate(156,36) scale(2.06)"><rect width="6" height="6"/></g>
<g transform="translate(180,36) scale(2.06)"><rect width="6" height="6"/></g>
<g transform="translate(192,36) scale(2.06)"><rect width="6" height="6"/></g>
<g transform="translate(204,36) scale(2.06)"><rect width="6" height="6"/></g>
<g transform="translate(228,36) scale(2.06)"><rect width="6" height="6"/></g>
<g transform="translate(252,36) scale(2.06)"><rect width="6" height="6"/></g>
<g transform="translate(276,36) scale(2.06)"><rect width="6" height="6"/></g>
<g transform="translate(288,36) scale(2.06)"><rect width="6" height="6"/></g>
<g transform="translate(300,36) scale(2.06)"><rect width="6" height="6"/></g>
<g transform="translate(312,36) scale(2.06)"><rect width="6" height="6"/></g>
<g transform="translate(120,48) scale(2.06)"><rect width="6" height="6"/></g>
<g transform="translate(132,48) scale(2.06)"><rect width="6" height="6"/></g>
<g transform="translate(144,48) scale(2.06)"><rect width="6" height="6"/></g>
<g transform="translate(168,48) scale(2.06)"><rect width="6" height="6"/></g>
<g transform="translate(180,48) scale(2.06)"><rect width="6" height="6"/></g>
<g transform="translate(216,48) scale(2.06)"><rect width="6" height="6"/></g>
<g transform="translate(228,48) scale(2.06)"><rect width="6" height="6"/></g>
<g transform="translate(240,48) scale(2.06)"><rect width="6" height="6"/></g>
<g transform="translate(288,48) scale(2.06)"><rect width="6" height="6"/></g>
<g transform="translate(120,60) scale(2.06)"><rect width="6" height="6"/></g>
<g transform="translate(132,60) scale(2.06)"><rect width="6" height="6"/></g>
<g transform="translate(168,60) scale(2.06)"><rect width="6" height="6"/></g>
<g transform="translate(192,60) scale(2.06)"><rect width="6" height="6"/></g>
<g transform="translate(204,60) scale(2.06)"><rect width="6" height="6"/></g>
<g transform="translate(216,60) scale(2.06)"><rect width="6" height="6"/></g>
<g transform="translate(264,60) scale(2.06)"><rect width="6" height="6"/></g>
<g transform="translate(276,60) scale(2.06)"><rect width="6" height="6"/></g>
<g transform="translate(120,72) scale(2.06)"><rect width="6" height="6"/></g>
<g transform="translate(156,72) scale(2.06)"><rect width="6" height="6"/></g>
<g transform="translate(168,72) scale(2.06)"><rect width="6" height="6"/></g>
<g transform="translate(204,72) scale(2.06)"><rect width="6" height="6"/></g>
<g transform="translate(228,72) scale(2.06)"><rect width="6" height="6"/></g>
<g transform="translate(240,72) scale(2.06)"><rect width="6" height="6"/></g>
<g transform="translate(276,72) scale(2.06)"><rect width="6" height="6"/></g>
<g transform="translate(312,72) scale(2.06)"><rect width="6" height="6"/></g>
<g transform="translate(120,84) scale(2.06)"><rect width="6" height="6"/></g>
<g transform="translate(132,84) scale(2.06)"><rect width="6" height="6"/></g>
<g transform="translate(156,84) scale(2.06)"><rect width="6" height="6"/></g>
<g transform="translate(168,84) scale(2.06)"><rect width="6" height="6"/></g>
<g transform="translate(180,84) scale(2.06)"><rect width="6" height="6"/></g>
<g transform="translate(204,84) scale(2.06)"><rect width="6" height="6"/></g>
<g transform="translate(216,84) scale(2.06)"><rect width="6" height="6"/></g>
<g transform="translate(264,84) scale(2.06)"><rect width="6" height="6"/></g>
<g transform="translate(288,84) scale(2.06)"><rect width="6" height="6"/></g>
<g transform="translate(300,84) scale(2.06)"><rect width="6" height="6"/></g>
<g transform="translate(120,96) scale(2.06)"><rect width="6" height="6"/></g>
<g transform="translate(144,96) scale(2.06)"><rect width="6" height="6"/></g>
<g transform="translate(168,96) scale(2.06)"><rect width="6" height="6"/></g>
<g transform="translate(192,96) scale(2.06)"><rect width="6" height="6"/></g>
<g transform="translate(216,96) scale(2.06)"><rect width="6" height="6"/></g>
<g transform="translate(240,96) scale(2.06)"><rect width="6" height="6"/></g>
<g transform="translate(264,96) scale(2.06)"><rect width="6" height="6"/></g>
<g transform="translate(288,96) scale(2.06)"><rect width="6" height="6"/></g>
<g transform="translate(312,96) scale(2.06)"><rect width="6" height="6"/></g>
<g transform="translate(120,108) scale(2.06)"><rect width="6" height="6"/></g>
<g transform="translate(144,108) scale(2.06)"><rect width="6" height="6"/></g>
<g transform="translate(180,108) scale(2.06)"><rect width="6" height="6"/></g>
<g transform="translate(204,108) scale(2.06)"><rect width="6" height="6"/></g>
<g transform="translate(228,108) scale(2.06)"><rect width="6" height="6"/></g>
<g transform="translate(276,108) scale(2.06)"><rect width="6" height="6"/></g>
<g transform="translate(288,108) scale(2.06)"><rect width="6" height="6"/></g>
<g transform="translate(24,120) scale(2.06)"><rect width="6" height="6"/></g>
<g transform="translate(48,120) scale(2.06)"><rect width="6" height="6"/></g>
<g transform="translate(60,120) scale(2.06)"><rect width="6" height="6"/></g>
<g transform="translate(72,120) scale(2.06)"><rect width="6" height="6"/></g>
<g transform="translate(84,120) scale(2.06)"><rect width="6" height="6"/></g>
<g transform="translate(96,120) scale(2.06)"><rect width="6" height="6"/></g>
<g transform="translate(168,120) scale(2.06)"><rect width="6" height="6"/></g>
<g transform="translate(180,120) scale(2.06)"><rect width="6" height="6"/></g>
<g transform="translate(204,120) scale(2.06)"><rect width="6" height="6"/></g>
<g transform="translate(228,120) scale(2.06)"><rect width="6" height="6"/></g>
<g transform="translate(240,120) scale(2.06)"><rect width="6" height="6"/></g>
<g transform="translate(300,120) scale(2.06)"><rect width="6" height="6"/></g>
<g transform="translate(336,120) scale(2.06)"><rect width="6" height="6"/></g>
<g transform="translate(348,120) scale(2.06)"><rect width="6" height="6"/></g>
<g transform="translate(360,120) scale(2.06)"><rect width="6" height="6"/></g>
<g transform="translate(372,120) scale(2.06)"><rect width="6" height="6"/></g>
<g transform="translate(384,120) scale(2.06)"><rect width="6" height="6"/></g>
<g transform="translate(24,132) scale(2.06)"><rect width="6" height="6"/></g>
<g transform="translate(48,132) scale(2.06)"><rect width="6" height="6"/></g>
<g transform="translate(72,132) scale(2.06)"><rect width="6" height="6"/></g>
<g transform="translate(108,132) scale(2.06)"><rect width="6" height="6"/></g>
<g transform="translate(120,132) scale(2.06)"><rect width="6" height="6"/></g>
<g transform="translate(156,132) scale(2.06)"><rect width="6" height="6"/></g>
<g transform="translate(192,132) scale(2.06)"><rect width="6" height="6"/></g>
<g transform="translate(240,132) scale(2.06)"><rect width="6" height="6"/></g>
<g transform="translate(252,132) scale(2.06)"><rect width="6" height="6"/></g>
<g transform="translate(276,132) scale(2.06)"><rect width="6" height="6"/></g>
<g transform="translate(288,132) scale(2.06)"><rect width="6" height="6"/></g>
<g transform="translate(300,132) scale(2.06)"><rect width="6" height="6"/></g>
<g transform="translate(312,132) scale(2.06)"><rect width="6" height="6"/></g>
<g transform="translate(324,132) scale(2.06)"><rect width="6" height="6"/></g>
<g transform="translate(336,132) scale(2.06)"><rect width="6" height="6"/></g>
<g transform="translate(348,132) scale(2.06)"><rect width="6" height="6"/></g>
<g transform="translate(372,132) scale(2.06)"><rect width="6" height="6"/></g>
<g transform="translate(384,132) scale(2.06)"><rect width="6" height="6"/></g>
<g transform="translate(396,132) scale(2.06)"><rect width="6" height="6"/></g>
<g transform="translate(408,132) scale(2.06)"><rect width="6" height="6"/></g>
<g transform="translate(24,144) scale(2.06)"><rect width="6" height="6"/></g>
<g transform="translate(48,144) scale(2.06)"><rect width="6" height="6"/></g>
<g transform="translate(96,144) scale(2.06)"><rect width="6" height="6"/></g>
<g transform="translate(108,144) scale(2.06)"><rect width="6" height="6"/></g>
<g transform="translate(132,144) scale(2.06)"><rect width="6" height="6"/></g>
<g transform="translate(144,144) scale(2.06)"><rect width="6" height="6"/></g>
<g transform="translate(204,144) scale(2.06)"><rect width="6" height="6"/></g>
<g transform="translate(240,144) scale(2.06)"><rect width="6" height="6"/></g>
<g transform="translate(276,144) scale(2.06)"><rect width="6" height="6"/></g>
<g transform="translate(312,144) scale(2.06)"><rect width="6" height="6"/></g>
<g transform="translate(324,144) scale(2.06)"><rect width="6" height="6"/></g>
<g transform="translate(360,144) scale(2.06)"><rect width="6" height="6"/></g>
<g transform="translate(372,144) scale(2.06)"><rect width="6" height="6"/></g>
<g transform="translate(384,144) scale(2.06)"><rect width="6" height="6"/></g>
<g transform="translate(36,156) scale(2.06)"><rect width="6" height="6"/></g>
<g transform="translate(48,156) scale(2.06)"><rect width="6" height="6"/></g>
<g transform="translate(72,156) scale(2.06)"><rect width="6" height="6"/></g>
<g transform="translate(84,156) scale(2.06)"><rect width="6" height="6"/></g>
<g transform="translate(108,156) scale(2.06)"><rect width="6" height="6"/></g>
<g transform="translate(120,156) scale(2.06)"><rect width="6" height="6"/></g>
<g transform="translate(132,156) scale(2.06)"><rect width="6" height="6"/></g>
<g transform="translate(144,156) scale(2.06)"><rect width="6" height="6"/></g>
<g transform="translate(192,156) scale(2.06)"><rect width="6" height="6"/></g>
<g transform="translate(276,156) scale(2.06)"><rect width="6" height="6"/></g>
<g transform="translate(324,156) scale(2.06)"><rect width="6" height="6"/></g>
<g transform="translate(336,156) scale(2.06)"><rect width="6" height="6"/></g>
<g transform="translate(348,156) scale(2.06)"><rect width="6" height="6"/></g>
<g transform="translate(372,156) scale(2.06)"><rect width="6" height="6"/></g>
<g transform="translate(384,156) scale(2.06)"><rect width="6" height="6"/></g>
<g transform="translate(24,168) scale(2.06)"><rect width="6" height="6"/></g>
<g transform="translate(96,168) scale(2.06)"><rect width="6" height="6"/></g>
<g transform="translate(108,168) scale(2.06)"><rect width="6" height="6"/></g>
<g transform="translate(168,168) scale(2.06)"><rect width="6" height="6"/></g>
<g transform="translate(240,168) scale(2.06)"><rect width="6" height="6"/></g>
<g transform="translate(252,168) scale(2.06)"><rect width="6" height="6"/></g>
<g transform="translate(276,168) scale(2.06)"><rect width="6" height="6"/></g>
<g transform="translate(360,168) scale(2.06)"><rect width="6" height="6"/></g>
<g transform="translate(396,168) scale(2.06)"><rect width="6" height="6"/></g>
<g transform="translate(24,180) scale(2.06)"><rect width="6" height="6"/></g>
<g transform="translate(72,180) scale(2.06)"><rect width="6" height="6"/></g>
<g transform="translate(84,180) scale(2.06)"><rect width="6" height="6"/></g>
<g transform="translate(180,180) scale(2.06)"><rect width="6" height="6"/></g>
<g transform="translate(192,180) scale(2.06)"><rect width="6" height="6"/></g>
<g transform="translate(204,180) scale(2.06)"><rect width="6" height="6"/></g>
<g transform="translate(216,180) scale(2.06)"><rect width="6" height="6"/></g>
<g transform="translate(228,180) scale(2.06)"><rect width="6" height="6"/></g>
<g transform="translate(264,180) scale(2.06)"><rect width="6" height="6"/></g>
<g transform="translate(276,180) scale(2.06)"><rect width="6" height="6"/></g>
<g transform="translate(312,180) scale(2.06)"><rect width="6" height="6"/></g>
<g transform="translate(324,180) scale(2.06)"><rect width="6" height="6"/></g>
<g transform="translate(336,180) scale(2.06)"><rect width="6" height="6"/></g>
<g transform="translate(348,180) scale(2.06)"><rect width="6" height="6"/></g>
<g transform="translate(360,180) scale(2.06)"><rect width="6" height="6"/></g>
<g transform="translate(384,180) scale(2.06)"><rect width="6" height="6"/></g>
<g transform="translate(408,180) scale(2.06)"><rect width="6" height="6"/></g>
<g transform="translate(48,192) scale(2.06)"><rect width="6" height="6"/></g>
<g transform="translate(72,192) scale(2.06)"><rect width="6" height="6"/></g>
<g transform="translate(96,192) scale(2.06)"><rect width="6" height="6"/></g>
<g transform="translate(120,192) scale(2.06)"><rect width="6" height="6"/></g>
<g transform="translate(132,192) scale(2.06)"><rect width="6" height="6"/></g>
<g transform="translate(156,192) scale(2.06)"><rect width="6" height="6"/></g>
<g transform="translate(192,192) scale(2.06)"><rect width="6" height="6"/></g>
<g transform="translate(240,192) scale(2.06)"><rect width="6" height="6"/></g>
<g transform="translate(252,192) scale(2.06)"><rect width="6" height="6"/></g>
<g transform="translate(300,192) scale(2.06)"><rect width="6" height="6"/></g>
<g transform="translate(312,192) scale(2.06)"><rect width="6" height="6"/></g>
<g transform="translate(324,192) scale(2.06)"><rect width="6" height="6"/></g>
<g transform="translate(360,192) scale(2.06)"><rect width="6" height="6"/></g>
<g transform="translate(24,204) scale(2.06)"><rect width="6" height="6"/></g>
<g transform="translate(60,204) scale(2.06)"><rect width="6" height="6"/></g>
<g transform="translate(72,204) scale(2.06)"><rect width="6" height="6"/></g>
<g transform="translate(144,204) scale(2.06)"><rect width="6" height="6"/></g>
<g transform="translate(216,204) scale(2.06)"><rect width="6" height="6"/></g>
<g transform="translate(240,204) scale(2.06)"><rect width="6" height="6"/></g>
<g transform="translate(252,204) scale(2.06)"><rect width="6" height="6"/></g>
<g transform="translate(264,204) scale(2.06)"><rect width="6" height="6"/></g>
<g transform="translate(288,204) scale(2.06)"><rect width="6" height="6"/></g>
<g transform="translate(324,204) scale(2.06)"><rect width="6" height="6"/></g>
<g transform="translate(336,204) scale(2.06)"><rect width="6" height="6"/></g>
<g transform="translate(396,204) scale(2.06)"><rect width="6" height="6"/></g>
<g transform="translate(408,204) scale(2.06)"><rect width="6" height="6"/></g>
<g transform="translate(36,216) scale(2.06)"><rect width="6" height="6"/></g>
<g transform="translate(48,216) scale(2.06)"><rect width="6" height="6"/></g>
<g transform="translate(72,216) scale(2.06)"><rect width="6" height="6"/></g>
<g transform="translate(96,216) scale(2.06)"><rect width="6" height="6"/></g>
<g transform="translate(144,216) scale(2.06)"><rect width="6" height="6"/></g>
<g transform="translate(180,216) scale(2.06)"><rect width="6" height="6"/></g>
<g transform="translate(216,216) scale(2.06)"><rect width="6" height="6"/></g>
<g transform="translate(240,216) scale(2.06)"><rect width="6" height="6"/></g>
<g transform="translate(252,216) scale(2.06)"><rect width="6" height="6"/></g>
<g transform="translate(276,216) scale(2.06)"><rect width="6" height="6"/></g>
<g transform="translate(300,216) scale(2.06)"><rect width="6" height="6"/></g>
<g transform="translate(336,216) scale(2.06)"><rect width="6" height="6"/></g>
<g transform="translate(408,216) scale(2.06)"><rect width="6" height="6"/></g>
<g transform="translate(24,228) scale(2.06)"><rect width="6" height="6"/></g>
<g transform="translate(60,228) scale(2.06)"><rect width="6" height="6"/></g>
<g transform="translate(84,228) scale(2.06)"><rect width="6" height="6"/></g>
<g transform="translate(120,228) scale(2.06)"><rect width="6" height="6"/></g>
<g transform="translate(156,228) scale(2.06)"><rect width="6" height="6"/></g>
<g transform="translate(180,228) scale(2.06)"><rect width="6" height="6"/></g>
<g transform="translate(192,228) scale(2.06)"><rect width="6" height="6"/></g>
<g transform="translate(228,228) scale(2.06)"><rect width="6" height="6"/></g>
<g transform="translate(252,228) scale(2.06)"><rect width="6" height="6"/></g>
<g transform="translate(288,228) scale(2.06)"><rect width="6" height="6"/></g>
<g transform="translate(300,228) scale(2.06)"><rect width="6" height="6"/></g>
<g transform="translate(312,228) scale(2.06)"><rect width="6" height="6"/></g>
<g transform="translate(324,228) scale(2.06)"><rect width="6" height="6"/></g>
<g transform="translate(336,228) scale(2.06)"><rect width="6" height="6"/></g>
<g transform="translate(348,228) scale(2.06)"><rect width="6" height="6"/></g>
<g transform="translate(396,228) scale(2.06)"><rect width="6" height="6"/></g>
<g transform="translate(408,228) scale(2.06)"><rect width="6" height="6"/></g>
<g transform="translate(24,240) scale(2.06)"><rect width="6" height="6"/></g>
<g transform="translate(48,240) scale(2.06)"><rect width="6" height="6"/></g>
<g transform="translate(72,240) scale(2.06)"><rect width="6" height="6"/></g>
<g transform="translate(96,240) scale(2.06)"><rect width="6" height="6"/></g>
<g transform="translate(108,240) scale(2.06)"><rect width="6" height="6"/></g>
<g transform="translate(132,240) scale(2.06)"><rect width="6" height="6"/></g>
<g transform="translate(156,240) scale(2.06)"><rect width="6" height="6"/></g>
<g transform="translate(180,240) scale(2.06)"><rect width="6" height="6"/></g>
<g transform="translate(192,240) scale(2.06)"><rect width="6" height="6"/></g>
<g transform="translate(204,240) scale(2.06)"><rect width="6" height="6"/></g>
<g transform="translate(216,240) scale(2.06)"><rect width="6" height="6"/></g>
<g transform="translate(228,240) scale(2.06)"><rect width="6" height="6"/></g>
<g transform="translate(252,240) scale(2.06)"><rect width="6" height="6"/></g>
<g transform="translate(264,240) scale(2.06)"><rect width="6" height="6"/></g>
<g transform="translate(288,240) scale(2.06)"><rect width="6" height="6"/></g>
<g transform="translate(312,240) scale(2.06)"><rect width="6" height="6"/></g>
<g transform="translate(336,240) scale(2.06)"><rect width="6" height="6"/></g>
<g transform="translate(348,240) scale(2.06)"><rect width="6" height="6"/></g>
<g transform="translate(360,240) scale(2.06)"><rect width="6" height="6"/></g>
<g transform="translate(372,240) scale(2.06)"><rect width="6" height="6"/></g>
<g transform="translate(24,252) scale(2.06)"><rect width="6" height="6"/></g>
<g transform="translate(36,252) scale(2.06)"><rect width="6" height="6"/></g>
<g transform="translate(72,252) scale(2.06)"><rect width="6" height="6"/></g>
<g transform="translate(84,252) scale(2.06)"><rect width="6" height="6"/></g>
<g transform="translate(108,252) scale(2.06)"><rect width="6" height="6"/></g>
<g transform="translate(144,252) scale(2.06)"><rect width="6" height="6"/></g>
<g transform="translate(180,252) scale(2.06)"><rect width="6" height="6"/></g>
<g transform="translate(216,252) scale(2.06)"><rect width="6" height="6"/></g>
<g transform="translate(228,252) scale(2.06)"><rect width="6" height="6"/></g>
<g transform="translate(240,252) scale(2.06)"><rect width="6" height="6"/></g>
<g transform="translate(252,252) scale(2.06)"><rect width="6" height="6"/></g>
<g transform="translate(300,252) scale(2.06)"><rect width="6" height="6"/></g>
<g transform="translate(312,252) scale(2.06)"><rect width="6" height="6"/></g>
<g transform="translate(324,252) scale(2.06)"><rect width="6" height="6"/></g>
<g transform="translate(348,252) scale(2.06)"><rect width="6" height="6"/></g>
<g transform="translate(372,252) scale(2.06)"><rect width="6" height="6"/></g>
<g transform="translate(408,252) scale(2.06)"><rect width="6" height="6"/></g>
<g transform="translate(36,264) scale(2.06)"><rect width="6" height="6"/></g>
<g transform="translate(96,264) scale(2.06)"><rect width="6" height="6"/></g>
<g transform="translate(108,264) scale(2.06)"><rect width="6" height="6"/></g>
<g transform="translate(168,264) scale(2.06)"><rect width="6" height="6"/></g>
<g transform="translate(180,264) scale(2.06)"><rect width="6" height="6"/></g>
<g transform="translate(204,264) scale(2.06)"><rect width="6" height="6"/></g>
<g transform="translate(216,264) scale(2.06)"><rect width="6" height="6"/></g>
<g transform="translate(252,264) scale(2.06)"><rect width="6" height="6"/></g>
<g transform="translate(264,264) scale(2.06)"><rect width="6" height="6"/></g>
<g transform="translate(276,264) scale(2.06)"><rect width="6" height="6"/></g>
<g transform="translate(288,264) scale(2.06)"><rect width="6" height="6"/></g>
<g transform="translate(300,264) scale(2.06)"><rect width="6" height="6"/></g>
<g transform="translate(336,264) scale(2.06)"><rect width="6" height="6"/></g>
<g transform="translate(360,264) scale(2.06)"><rect width="6" height="6"/></g>
<g transform="translate(372,264) scale(2.06)"><rect width="6" height="6"/></g>
<g transform="translate(408,264) scale(2.06)"><rect width="6" height="6"/></g>
<g transform="translate(24,276) scale(2.06)"><rect width="6" height="6"/></g>
<g transform="translate(60,276) scale(2.06)"><rect width="6" height="6"/></g>
<g transform="translate(84,276) scale(2.06)"><rect width="6" height="6"/></g>
<g transform="translate(108,276) scale(2.06)"><rect width="6" height="6"/></g>
<g transform="translate(132,276) scale(2.06)"><rect width="6" height="6"/></g>
<g transform="translate(168,276) scale(2.06)"><rect width="6" height="6"/></g>
<g transform="translate(192,276) scale(2.06)"><rect width="6" height="6"/></g>
<g transform="translate(204,276) scale(2.06)"><rect width="6" height="6"/></g>
<g transform="translate(228,276) scale(2.06)"><rect width="6" height="6"/></g>
<g transform="translate(240,276) scale(2.06)"><rect width="6" height="6"/></g>
<g transform="translate(300,276) scale(2.06)"><rect width="6" height="6"/></g>
<g transform="translate(312,276) scale(2.06)"><rect width="6" height="6"/></g>
<g transform="translate(336,276) scale(2.06)"><rect width="6" height="6"/></g>
<g transform="translate(348,276) scale(2.06)"><rect width="6" height="6"/></g>
<g transform="translate(360,276) scale(2.06)"><rect width="6" height="6"/></g>
<g transform="translate(372,276) scale(2.06)"><rect width="6" height="6"/></g>
<g transform="translate(384,276) scale(2.06)"><rect width="6" height="6"/></g>
<g transform="translate(396,276) scale(2.06)"><rect width="6" height="6"/></g>
<g transform="translate(24,288) scale(2.06)"><rect width="6" height="6"/></g>
<g transform="translate(72,288) scale(2.06)"><rect width="6" height="6"/></g>
<g transform="translate(96,288) scale(2.06)"><rect width="6" height="6"/></g>
<g transform="translate(108,288) scale(2.06)"><rect width="6" height="6"/></g>
<g transform="translate(120,288) scale(2.06)"><rect width="6" height="6"/></g>
<g transform="translate(132,288) scale(2.06)"><rect width="6" height="6"/></g>
<g transform="translate(144,288) scale(2.06)"><rect width="6" height="6"/></g>
<g transform="translate(156,288) scale(2.06)"><rect width="6" height="6"/></g>
<g transform="translate(168,288) scale(2.06)"><rect width="6" height="6"/></g>
<g transform="translate(192,288) scale(2.06)"><rect width="6" height="6"/></g>
<g transform="translate(204,288) scale(2.06)"><rect width="6" height="6"/></g>
<g transform="translate(216,288) scale(2.06)"><rect width="6" height="6"/></g>
<g transform="translate(264,288) scale(2.06)"><rect width="6" height="6"/></g>
<g transform="translate(276,288) scale(2.06)"><rect width="6" height="6"/></g>
<g transform="translate(288,288) scale(2.06)"><rect width="6" height="6"/></g>
<g transform="translate(324,288) scale(2.06)"><rect width="6" height="6"/></g>
<g transform="translate(348,288) scale(2.06)"><rect width="6" height="6"/></g>
<g transform="translate(372,288) scale(2.06)"><rect width="6" height="6"/></g>
<g transform="translate(396,288) scale(2.06)"><rect width="6" height="6"/></g>
<g transform="translate(24,300) scale(2.06)"><rect width="6" height="6"/></g>
<g transform="translate(48,300) scale(2.06)"><rect width="6" height="6"/></g>
<g transform="translate(60,300) scale(2.06)"><rect width="6" height="6"/></g>
<g transform="translate(84,300) scale(2.06)"><rect width="6" height="6"/></g>
<g transform="translate(108,300) scale(2.06)"><rect width="6" height="6"/></g>
<g transform="translate(120,300) scale(2.06)"><rect width="6" height="6"/></g>
<g transform="translate(144,300) scale(2.06)"><rect width="6" height="6"/></g>
<g transform="translate(180,300) scale(2.06)"><rect width="6" height="6"/></g>
<g transform="translate(192,300) scale(2.06)"><rect width="6" height="6"/></g>
<g transform="translate(204,300) scale(2.06)"><rect width="6" height="6"/></g>
<g transform="translate(288,300) scale(2.06)"><rect width="6" height="6"/></g>
<g transform="translate(312,300) scale(2.06)"><rect width="6" height="6"/></g>
<g transform="translate(336,300) scale(2.06)"><rect width="6" height="6"/></g>
<g transform="translate(24,312) scale(2.06)"><rect width="6" height="6"/></g>
<g transform="translate(60,312) scale(2.06)"><rect width="6" height="6"/></g>
<g transform="translate(72,312) scale(2.06)"><rect width="6" height="6"/></g>
<g transform="translate(96,312) scale(2.06)"><rect width="6" height="6"/></g>
<g transform="translate(108,312) scale(2.06)"><rect width="6" height="6"/></g>
<g transform="translate(120,312) scale(2.06)"><rect width="6" height="6"/></g>
<g transform="translate(132,312) scale(2.06)"><rect width="6" height="6"/></g>
<g transform="translate(156,312) scale(2.06)"><rect width="6" height="6"/></g>
<g transform="translate(192,312) scale(2.06)"><rect width="6" height="6"/></g>
<g transform="translate(204,312) scale(2.06)"><rect width="6" height="6"/></g>
<g transform="translate(216,312) scale(2.06)"><rect width="6" height="6"/></g>
<g transform="translate(228,312) scale(2.06)"><rect width="6" height="6"/></g>
<g transform="translate(240,312) scale(2.06)"><rect width="6" height="6"/></g>
<g transform="translate(300,312) scale(2.06)"><rect width="6" height="6"/></g>
<g transform="translate(312,312) scale(2.06)"><rect width="6" height="6"/></g>
<g transform="translate(324,312) scale(2.06)"><rect width="6" height="6"/></g>
<g transform="translate(336,312) scale(2.06)"><rect width="6" height="6"/></g>
<g transform="translate(348,312) scale(2.06)"><rect width="6" height="6"/></g>
<g transform="translate(360,312) scale(2.06)"><rect width="6" height="6"/></g>
<g transform="translate(372,312) scale(2.06)"><rect width="6" height="6"/></g>
<g transform="translate(396,312) scale(2.06)"><rect width="6" height="6"/></g>
<g transform="translate(120,324) scale(2.06)"><rect width="6" height="6"/></g>
<g transform="translate(144,324) scale(2.06)"><rect width="6" height="6"/></g>
<g transform="translate(168,324) scale(2.06)"><rect width="6" height="6"/></g>
<g transform="translate(180,324) scale(2.06)"><rect width="6" height="6"/></g>
<g transform="translate(240,324) scale(2.06)"><rect width="6" height="6"/></g>
<g transform="translate(252,324) scale(2.06)"><rect width="6" height="6"/></g>
<g transform="translate(276,324) scale(2.06)"><rect width="6" height="6"/></g>
<g transform="translate(300,324) scale(2.06)"><rect width="6" height="6"/></g>
<g transform="translate(312,324) scale(2.06)"><rect width="6" height="6"/></g>
<g transform="translate(360,324) scale(2.06)"><rect width="6" height="6"/></g>
<g transform="translate(372,324) scale(2.06)"><rect width="6" height="6"/></g>
<g transform="translate(384,324) scale(2.06)"><rect width="6" height="6"/></g>
<g transform="translate(408,324) scale(2.06)"><rect width="6" height="6"/></g>
<g transform="translate(132,336) scale(2.06)"><rect width="6" height="6"/></g>
<g transform="translate(180,336) scale(2.06)"><rect width="6" height="6"/></g>
<g transform="translate(192,336) scale(2.06)"><rect width="6" height="6"/></g>
<g transform="translate(216,336) scale(2.06)"><rect width="6" height="6"/></g>
<g transform="translate(240,336) scale(2.06)"><rect width="6" height="6"/></g>
<g transform="translate(264,336) scale(2.06)"><rect width="6" height="6"/></g>
<g transform="translate(276,336) scale(2.06)"><rect width="6" height="6"/></g>
<g transform="translate(300,336) scale(2.06)"><rect width="6" height="6"/></g>
<g transform="translate(312,336) scale(2.06)"><rect width="6" height="6"/></g>
<g transform="translate(336,336) scale(2.06)"><rect width="6" height="6"/></g>
<g transform="translate(360,336) scale(2.06)"><rect width="6" height="6"/></g>
<g transform="translate(120,348) scale(2.06)"><rect width="6" height="6"/></g>
<g transform="translate(132,348) scale(2.06)"><rect width="6" height="6"/></g>
<g transform="translate(156,348) scale(2.06)"><rect width="6" height="6"/></g>
<g transform="translate(180,348) scale(2.06)"><rect width="6" height="6"/></g>
<g transform="translate(216,348) scale(2.06)"><rect width="6" height="6"/></g>
<g transform="translate(264,348) scale(2.06)"><rect width="6" height="6"/></g>
<g transform="translate(276,348) scale(2.06)"><rect width="6" height="6"/></g>
<g transform="translate(288,348) scale(2.06)"><rect width="6" height="6"/></g>
<g transform="translate(312,348) scale(2.06)"><rect width="6" height="6"/></g>
<g transform="translate(360,348) scale(2.06)"><rect width="6" height="6"/></g>
<g transform="translate(384,348) scale(2.06)"><rect width="6" height="6"/></g>
<g transform="translate(408,348) scale(2.06)"><rect width="6" height="6"/></g>
<g transform="translate(120,360) scale(2.06)"><rect width="6" height="6"/></g>
<g transform="translate(144,360) scale(2.06)"><rect width="6" height="6"/></g>
<g transform="translate(180,360) scale(2.06)"><rect width="6" height="6"/></g>
<g transform="translate(192,360) scale(2.06)"><rect width="6" height="6"/></g>
<g transform="translate(204,360) scale(2.06)"><rect width="6" height="6"/></g>
<g transform="translate(240,360) scale(2.06)"><rect width="6" height="6"/></g>
<g transform="translate(252,360) scale(2.06)"><rect width="6" height="6"/></g>
<g transform="translate(276,360) scale(2.06)"><rect width="6" height="6"/></g>
<g transform="translate(300,360) scale(2.06)"><rect width="6" height="6"/></g>
<g transform="translate(312,360) scale(2.06)"><rect width="6" height="6"/></g>
<g transform="translate(324,360) scale(2.06)"><rect width="6" height="6"/></g>
<g transform="translate(336,360) scale(2.06)"><rect width="6" height="6"/></g>
<g transform="translate(348,360) scale(2.06)"><rect width="6" height="6"/></g>
<g transform="translate(360,360) scale(2.06)"><rect width="6" height="6"/></g>
<g transform="translate(372,360) scale(2.06)"><rect width="6" height="6"/></g>
<g transform="translate(408,360) scale(2.06)"><rect width="6" height="6"/></g>
<g transform="translate(120,372) scale(2.06)"><rect width="6" height="6"/></g>
<g transform="translate(132,372) scale(2.06)"><rect width="6" height="6"/></g>
<g transform="translate(144,372) scale(2.06)"><rect width="6" height="6"/></g>
<g transform="translate(180,372) scale(2.06)"><rect width="6" height="6"/></g>
<g transform="translate(204,372) scale(2.06)"><rect width="6" height="6"/></g>
<g transform="translate(216,372) scale(2.06)"><rect width="6" height="6"/></g>
<g transform="translate(264,372) scale(2.06)"><rect width="6" height="6"/></g>
<g transform="translate(288,372) scale(2.06)"><rect width="6" height="6"/></g>
<g transform="translate(336,372) scale(2.06)"><rect width="6" height="6"/></g>
<g transform="translate(348,372) scale(2.06)"><rect width="6" height="6"/></g>
<g transform="translate(372,372) scale(2.06)"><rect width="6" height="6"/></g>
<g transform="translate(384,372) scale(2.06)"><rect width="6" height="6"/></g>
<g transform="translate(120,384) scale(2.06)"><rect width="6" height="6"/></g>
<g transform="translate(132,384) scale(2.06)"><rect width="6" height="6"/></g>
<g transform="translate(144,384) scale(2.06)"><rect width="6" height="6"/></g>
<g transform="translate(228,384) scale(2.06)"><rect width="6" height="6"/></g>
<g transform="translate(240,384) scale(2.06)"><rect width="6" height="6"/></g>
<g transform="translate(252,384) scale(2.06)"><rect width="6" height="6"/></g>
<g transform="translate(312,384) scale(2.06)"><rect width="6" height="6"/></g>
<g transform="translate(324,384) scale(2.06)"><rect width="6" height="6"/></g>
<g transform="translate(336,384) scale(2.06)"><rect width="6" height="6"/></g>
<g transform="translate(360,384) scale(2.06)"><rect width="6" height="6"/></g>
<g transform="translate(372,384) scale(2.06)"><rect width="6" height="6"/></g>
<g transform="translate(132,396) scale(2.06)"><rect width="6" height="6"/></g>
<g transform="translate(168,396) scale(2.06)"><rect width="6" height="6"/></g>
<g transform="translate(192,396) scale(2.06)"><rect width="6" height="6"/></g>
<g transform="translate(216,396) scale(2.06)"><rect width="6" height="6"/></g>
<g transform="translate(240,396) scale(2.06)"><rect width="6" height="6"/></g>
<g transform="translate(252,396) scale(2.06)"><rect width="6" height="6"/></g>
<g transform="translate(264,396) scale(2.06)"><rect width="6" height="6"/></g>
<g transform="translate(276,396) scale(2.06)"><rect width="6" height="6"/></g>
<g transform="translate(300,396) scale(2.06)"><rect width="6" height="6"/></g>
<g transform="translate(348,396) scale(2.06)"><rect width="6" height="6"/></g>
<g transform="translate(360,396) scale(2.06)"><rect width="6" height="6"/></g>
<g transform="translate(384,396) scale(2.06)"><rect width="6" height="6"/></g>
<g transform="translate(408,396) scale(2.06)"><rect width="6" height="6"/></g>
<g transform="translate(120,408) scale(2.06)"><rect width="6" height="6"/></g>
<g transform="translate(144,408) scale(2.06)"><rect width="6" height="6"/></g>
<g transform="translate(156,408) scale(2.06)"><rect width="6" height="6"/></g>
<g transform="translate(168,408) scale(2.06)"><rect width="6" height="6"/></g>
<g transform="translate(192,408) scale(2.06)"><rect width="6" height="6"/></g>
<g transform="translate(216,408) scale(2.06)"><rect width="6" height="6"/></g>
<g transform="translate(228,408) scale(2.06)"><rect width="6" height="6"/></g>
<g transform="translate(240,408) scale(2.06)"><rect width="6" height="6"/></g>
<g transform="translate(252,408) scale(2.06)"><rect width="6" height="6"/></g>
<g transform="translate(264,408) scale(2.06)"><rect width="6" height="6"/></g>
<g transform="translate(276,408) scale(2.06)"><rect width="6" height="6"/></g>
<g transform="translate(324,408) scale(2.06)"><rect width="6" height="6"/></g>
<g transform="translate(360,408) scale(2.06)"><rect width="6" height="6"/></g>
<g transform="translate(372,408) scale(2.06)"><rect width="6" height="6"/></g>
<g transform="translate(24,24)"><g transform="scale(6)"><path d="M0,0v14h14V0H0z M12,12H2V2h10V12z"/></g></g>
<g transform="translate(336,24)"><g transform="scale(6)"><path d="M0,0v14h14V0H0z M12,12H2V2h10V12z"/></g></g>
<g transform="translate(24,336)"><g transform="scale(6)"><path d="M0,0v14h14V0H0z M12,12H2V2h10V12z"/></g></g>
<g transform="translate(48,48)"><g transform="scale(6)"><rect width="6" height="6"/></g></g>
<g transform="translate(360,48)"><g transform="scale(6)"><rect width="6" height="6"/></g></g>
<g transform="translate(48,360)"><g transform="scale(6)"><rect width="6" height="6"/></g></g>
</g></svg>
